<svg width="280" height="80" viewBox="0 0 280 80" fill="none" xmlns="http://www.w3.org/2000/svg">
  <!-- Captive -->
  <path d="M20 45.5C20 36.9 26.4 30 35 30C39.8 30 43.9 32.1 46.5 35.5L42.8 38.8C41 36.5 38.2 35 35 35C29.2 35 24.8 39.7 24.8 45.5C24.8 51.3 29.2 56 35 56C38.2 56 41 54.5 42.8 52.2L46.5 55.5C43.9 58.9 39.8 61 35 61C26.4 61 20 54.1 20 45.5Z" fill="#2C3E50"/>
  <path d="M70 54.5H62.5L61.2 58H56.3L65 31H67.5L76.2 58H71.3L70 54.5ZM68.8 50.5L66.25 42L63.7 50.5H68.8Z" fill="#FF5722"/>
  <path d="M84 58V31H95C98.9 31 102 34.1 102 38C102 41.9 98.9 45 95 45H88.8V58H84ZM88.8 41H95C96.6 41 97.8 39.8 97.8 38C97.8 36.2 96.6 35 95 35H88.8V41Z" fill="#2C3E50"/>
  <path d="M111 35V58H106.2V35H98V31H119.2V35H111Z" fill="#2C3E50"/>
  <path d="M128 58V31H132.8V58H128Z" fill="#2C3E50"/>
  <path d="M151.5 58L142 39V58H137.2V31H142L151.5 50V31H156.3V58H151.5Z" fill="#2C3E50"/>
  <path d="M175 58V46H166V58H161.2V31H166V42H175V31H179.8V58H175Z" fill="#2C3E50"/>
  <!-- Demand -->
  <path d="M20 38V12H30C36.6 12 42 17.4 42 24C42 30.6 36.6 36 30 36H24.8V38H20ZM24.8 32H30C34.4 32 38 28.4 38 24C38 19.6 34.4 16 30 16H24.8V32Z" fill="#2C3E50"/>
  <path d="M59 38V12H72V16H63.8V23H71V27H63.8V34H72V38H59Z" fill="#2C3E50"/>
  <path d="M88 38V17L83 28H81L76 17V38H71.2V12H76L82 26L88 12H92.8V38H88Z" fill="#2C3E50"/>
  <path d="M109.5 38L100 19V38H95.2V12H100L109.5 31V12H114.3V38H109.5Z" fill="#2C3E50"/>
  <path d="M133 38H125.5L124.2 34.5H116.8L115.5 38H111L118 12H123L130 38ZM122.8 30.5L120.5 23.5L118.2 30.5H122.8Z" fill="#FF5722"/>
  <path d="M141 38V17L136 28H134L129 17V38H124.2V12H129L135 26L141 12H145.8V38H141Z" fill="#2C3E50"/>
  <path d="M155 38V12H165C168.9 12 172 15.1 172 19C172 22.9 168.9 26 165 26H159.8V38H155ZM159.8 22H165C166.6 22 167.8 20.8 167.8 19C167.8 17.2 166.6 16 165 16H159.8V22Z" fill="#2C3E50"/>
  <!-- Orange accent line -->
  <rect x="185" y="30" width="95" height="4" rx="2" fill="#FF5722"/>
  <!-- Blue accent line -->
  <rect y="50" width="85" height="4" rx="2" fill="#2C5BFF"/>
</svg>

