<svg xmlns="http://www.w3.org/2000/svg" xmlns:xlink="http://www.w3.org/1999/xlink" width="181" viewBox="0 0 135.75 30.750001" height="41" preserveAspectRatio="xMidYMid meet"><defs><clipPath id="f373c89f89"><path d="M 0.421875 0 L 135 0 L 135 30.503906 L 0.421875 30.503906 Z M 0.421875 0 " clip-rule="nonzero"></path></clipPath></defs><g clip-path="url(#f373c89f89)"><path fill="#ffffff" d="M 20.398438 15.621094 C 20.21875 17.839844 18.40625 19.640625 16.171875 19.8125 C 15.46875 19.867188 14.785156 19.769531 14.125 19.511719 C 13.464844 19.257812 12.890625 18.871094 12.410156 18.351562 C 11.589844 17.480469 11.179688 16.449219 11.179688 15.25 C 11.179688 15.125 11.179688 15 11.195312 14.871094 C 11.375 12.65625 13.191406 10.855469 15.421875 10.683594 C 16.128906 10.628906 16.808594 10.726562 17.46875 10.984375 C 18.128906 11.238281 18.703125 11.625 19.1875 12.140625 C 20.003906 13.011719 20.414062 14.046875 20.414062 15.242188 C 20.414062 15.371094 20.414062 15.496094 20.398438 15.621094 M 21.304688 9.78125 C 19.894531 8.375 18.023438 7.574219 16.054688 7.515625 L 15.800781 7.515625 C 13.664062 7.515625 11.679688 8.347656 10.191406 9.871094 C 9.484375 10.589844 8.941406 11.417969 8.5625 12.347656 C 8.183594 13.28125 7.996094 14.25 7.996094 15.257812 L 7.996094 15.511719 C 8.0625 17.46875 8.875 19.320312 10.289062 20.726562 C 11.703125 22.132812 13.570312 22.9375 15.539062 22.996094 L 15.792969 22.996094 C 17.929688 22.996094 19.914062 22.164062 21.402344 20.636719 C 22.824219 19.179688 23.597656 17.273438 23.597656 15.25 L 23.597656 15 C 23.53125 13.042969 22.71875 11.1875 21.304688 9.78125 M 15.792969 3.160156 C 17.734375 3.160156 19.34375 4.597656 19.601562 6.449219 L 22.808594 6.449219 C 22.542969 2.847656 19.5 0 15.792969 0 C 12.097656 0 9.054688 2.847656 8.777344 6.449219 L 11.984375 6.449219 C 12.246094 4.589844 13.851562 3.160156 15.792969 3.160156 M 15.792969 27.339844 C 13.851562 27.339844 12.246094 25.90625 11.984375 24.050781 L 8.777344 24.050781 C 9.054688 27.652344 12.089844 30.507812 15.792969 30.503906 C 19.492188 30.503906 22.535156 27.652344 22.808594 24.050781 L 19.601562 24.050781 C 19.34375 25.910156 17.734375 27.339844 15.792969 27.339844 M 24.660156 8.296875 L 24.660156 11.472656 C 26.535156 11.730469 27.980469 13.324219 27.980469 15.25 C 27.980469 17.179688 26.535156 18.769531 24.660156 19.03125 L 24.660156 22.207031 C 28.292969 21.9375 31.171875 18.917969 31.164062 15.25 C 31.164062 11.582031 28.292969 8.5625 24.660156 8.296875 M 26.3125 3.847656 C 26.699219 4.105469 27.027344 4.433594 27.292969 4.820312 C 27.742188 5.460938 27.980469 6.210938 27.980469 6.992188 L 27.980469 7.214844 L 31.171875 7.214844 C 31.171875 7.140625 31.179688 7.066406 31.179688 6.992188 C 31.179688 6.40625 31.105469 5.816406 30.957031 5.253906 C 30.796875 4.644531 30.5625 4.070312 30.246094 3.523438 C 29.933594 2.980469 29.554688 2.488281 29.109375 2.042969 C 28.664062 1.601562 28.167969 1.226562 27.621094 0.917969 C 27.074219 0.609375 26.496094 0.378906 25.890625 0.222656 C 25.316406 0.0742188 24.726562 0 24.132812 0 L 23.902344 0 L 23.902344 3.167969 C 23.976562 3.167969 24.050781 3.160156 24.132812 3.160156 C 24.914062 3.160156 25.671875 3.398438 26.320312 3.839844 M 5.710938 0.214844 C 3.21875 0.847656 1.277344 2.773438 0.648438 5.246094 C 0.496094 5.808594 0.421875 6.390625 0.421875 6.984375 L 0.421875 7.207031 L 3.621094 7.207031 C 3.621094 7.132812 3.613281 7.058594 3.613281 6.984375 C 3.613281 6.203125 3.851562 5.453125 4.300781 4.8125 C 4.566406 4.433594 4.894531 4.105469 5.28125 3.839844 C 6.011719 3.339844 6.816406 3.117188 7.699219 3.167969 L 7.699219 0.0078125 L 7.46875 0.0078125 C 6.867188 0 6.277344 0.0742188 5.710938 0.214844 M 5.28125 26.65625 C 4.894531 26.394531 4.566406 26.0625 4.300781 25.679688 C 3.851562 25.042969 3.613281 24.289062 3.613281 23.515625 L 3.613281 23.292969 L 0.429688 23.292969 C 0.429688 23.367188 0.421875 23.441406 0.421875 23.515625 C 0.421875 24.105469 0.496094 24.691406 0.648438 25.25 C 0.804688 25.855469 1.039062 26.433594 1.355469 26.976562 C 1.667969 27.523438 2.046875 28.015625 2.492188 28.457031 C 2.9375 28.898438 3.433594 29.273438 3.980469 29.585938 C 4.527344 29.894531 5.105469 30.125 5.710938 30.277344 C 6.277344 30.421875 6.875 30.496094 7.460938 30.496094 L 7.691406 30.496094 L 7.691406 27.332031 C 7.617188 27.332031 7.542969 27.339844 7.460938 27.339844 C 6.679688 27.339844 5.921875 27.101562 5.273438 26.664062 M 27.972656 23.292969 C 27.972656 23.367188 27.980469 23.441406 27.980469 23.515625 C 27.980469 24.289062 27.742188 25.042969 27.292969 25.679688 C 27.027344 26.0625 26.699219 26.386719 26.3125 26.65625 C 25.664062 27.09375 24.914062 27.332031 24.125 27.332031 L 23.894531 27.332031 L 23.894531 30.496094 C 23.96875 30.496094 24.050781 30.503906 24.125 30.503906 C 24.722656 30.503906 25.308594 30.425781 25.875 30.285156 C 26.484375 30.132812 27.058594 29.902344 27.605469 29.59375 C 28.152344 29.28125 28.648438 28.90625 29.09375 28.464844 C 29.539062 28.023438 29.921875 27.527344 30.234375 26.984375 C 30.546875 26.441406 30.78125 25.863281 30.941406 25.257812 C 31.089844 24.691406 31.164062 24.113281 31.164062 23.523438 L 31.164062 23.300781 L 27.972656 23.300781 Z M 6.925781 11.472656 L 6.925781 8.296875 C 3.296875 8.5625 0.421875 11.582031 0.421875 15.25 C 0.421875 18.925781 3.296875 21.9375 6.925781 22.207031 L 6.925781 19.03125 C 5.050781 18.769531 3.609375 17.179688 3.609375 15.25 C 3.609375 13.324219 5.050781 11.730469 6.925781 11.472656 M 116.875 11.277344 C 118.070312 11.277344 119.113281 11.539062 120.007812 12.058594 C 120.898438 12.582031 121.582031 13.285156 122.058594 14.179688 C 122.535156 15.074219 122.773438 16.054688 122.773438 17.125 C 122.773438 18.195312 122.535156 19.179688 122.058594 20.070312 C 121.578125 20.976562 120.894531 21.683594 120.007812 22.191406 C 119.113281 22.710938 118.070312 22.972656 116.875 22.972656 C 115.675781 22.972656 114.636719 22.710938 113.742188 22.191406 C 112.847656 21.671875 112.164062 20.964844 111.6875 20.070312 C 111.210938 19.179688 110.972656 18.195312 110.972656 17.125 C 110.972656 16.054688 111.210938 15.074219 111.6875 14.179688 C 112.164062 13.285156 112.847656 12.582031 113.742188 12.058594 C 114.636719 11.539062 115.675781 11.277344 116.875 11.277344 Z M 126.359375 11.613281 L 127.878906 14.351562 C 128.046875 14.640625 128.128906 14.9375 128.128906 15.230469 C 128.128906 15.519531 128.242188 15.667969 128.464844 15.667969 C 128.6875 15.667969 128.800781 15.519531 128.800781 15.230469 C 128.800781 14.9375 128.882812 14.640625 129.050781 14.351562 L 130.570312 11.613281 L 134.363281 11.613281 L 130.742188 16.878906 L 134.707031 22.652344 L 130.914062 22.652344 L 129.058594 19.394531 C 128.917969 19.171875 128.835938 18.882812 128.808594 18.515625 C 128.792969 18.375 128.761719 18.269531 128.726562 18.191406 C 128.679688 18.113281 128.597656 18.078125 128.472656 18.078125 C 128.347656 18.078125 128.265625 18.113281 128.21875 18.191406 C 128.175781 18.265625 128.152344 18.375 128.136719 18.515625 C 128.109375 18.882812 128.027344 19.171875 127.882812 19.394531 L 126.03125 22.652344 L 122.238281 22.652344 L 126.203125 16.878906 L 122.582031 11.613281 L 126.375 11.613281 Z M 116.875 14.121094 C 116.070312 14.121094 115.453125 14.402344 115.007812 14.976562 C 114.558594 15.546875 114.34375 16.261719 114.34375 17.125 C 114.34375 17.988281 114.566406 18.710938 115.007812 19.285156 C 115.445312 19.855469 116.070312 20.140625 116.875 20.140625 C 117.675781 20.140625 118.296875 19.855469 118.742188 19.285156 C 119.1875 18.710938 119.402344 17.996094 119.402344 17.125 C 119.402344 16.253906 119.179688 15.542969 118.742188 14.976562 C 118.296875 14.402344 117.675781 14.121094 116.875 14.121094 Z M 105.921875 19.285156 C 105.507812 19.855469 104.902344 20.140625 104.101562 20.140625 C 103.296875 20.140625 102.703125 19.847656 102.210938 19.261719 C 101.726562 18.671875 101.480469 17.964844 101.480469 17.125 C 101.480469 16.285156 101.726562 15.578125 102.210938 14.992188 C 102.695312 14.402344 103.328125 14.113281 104.101562 14.113281 C 104.875 14.113281 105.507812 14.394531 105.921875 14.96875 C 106.339844 15.542969 106.546875 16.253906 106.546875 17.117188 C 106.546875 17.980469 106.339844 18.703125 105.921875 19.277344 M 107.664062 12.042969 C 106.933594 11.53125 106.070312 11.269531 105.074219 11.269531 C 103.511719 11.269531 102.351562 11.984375 101.578125 13.40625 C 101.46875 13.628906 101.347656 13.742188 101.222656 13.742188 C 101.160156 13.742188 101.125 13.742188 101.09375 13.71875 C 101.011719 13.675781 100.96875 13.621094 100.96875 13.554688 C 100.96875 13.457031 101.011719 13.332031 101.09375 13.175781 C 101.175781 13.019531 101.234375 12.914062 101.265625 12.863281 C 101.421875 12.558594 101.496094 12.253906 101.496094 11.941406 L 101.496094 7.589844 L 98.125 7.589844 L 98.125 22.652344 L 101.496094 22.652344 L 101.496094 22.257812 C 101.496094 21.953125 101.414062 21.648438 101.242188 21.359375 C 101.101562 21.082031 101.035156 20.882812 101.035156 20.769531 C 101.035156 20.660156 101.085938 20.585938 101.207031 20.539062 C 101.289062 20.511719 101.363281 20.527344 101.414062 20.585938 C 101.472656 20.636719 101.527344 20.726562 101.585938 20.839844 C 102.34375 22.273438 103.511719 22.988281 105.082031 22.988281 C 106.078125 22.988281 106.941406 22.726562 107.671875 22.214844 C 108.402344 21.699219 108.957031 21 109.34375 20.109375 C 109.730469 19.222656 109.925781 18.234375 109.925781 17.132812 C 109.925781 16.03125 109.730469 15.042969 109.34375 14.148438 C 108.957031 13.265625 108.402344 12.566406 107.671875 12.050781 M 93.296875 11.277344 C 92.636719 11.277344 92.019531 11.464844 91.429688 11.835938 C 90.851562 12.207031 90.390625 12.722656 90.046875 13.390625 C 89.988281 13.488281 89.9375 13.554688 89.875 13.597656 C 89.816406 13.644531 89.734375 13.660156 89.625 13.660156 C 89.414062 13.660156 89.273438 13.554688 89.199219 13.347656 C 89.027344 12.707031 88.722656 12.199219 88.285156 11.828125 C 87.835938 11.457031 87.273438 11.269531 86.585938 11.269531 C 85.277344 11.269531 84.265625 12.03125 83.550781 13.546875 C 83.523438 13.613281 83.484375 13.679688 83.433594 13.75 C 83.382812 13.808594 83.316406 13.84375 83.234375 13.84375 C 83.1875 13.84375 83.160156 13.84375 83.128906 13.824219 C 83.023438 13.78125 82.972656 13.703125 82.980469 13.59375 C 82.980469 13.449219 83.03125 13.285156 83.152344 13.09375 C 83.359375 12.714844 83.464844 12.363281 83.464844 12.03125 L 83.464844 11.613281 L 80.09375 11.613281 L 80.09375 22.652344 L 83.464844 22.652344 L 83.464844 17.847656 C 83.464844 16.761719 83.648438 15.867188 84.015625 15.167969 C 84.378906 14.46875 84.863281 14.121094 85.472656 14.121094 C 85.933594 14.121094 86.253906 14.328125 86.417969 14.738281 C 86.585938 15.148438 86.667969 15.808594 86.667969 16.714844 L 86.667969 22.652344 L 90.039062 22.652344 L 90.039062 17.386719 C 90.039062 16.425781 90.203125 15.636719 90.539062 15.035156 C 90.867188 14.425781 91.28125 14.128906 91.773438 14.128906 C 92.308594 14.128906 92.6875 14.304688 92.910156 14.671875 C 93.132812 15.035156 93.246094 15.628906 93.246094 16.472656 L 93.246094 22.660156 L 96.617188 22.660156 L 96.617188 15.800781 C 96.617188 12.789062 95.507812 11.285156 93.285156 11.285156 M 74.832031 19.289062 C 74.386719 19.863281 73.769531 20.144531 72.964844 20.144531 C 72.164062 20.144531 71.546875 19.863281 71.097656 19.289062 C 70.652344 18.71875 70.4375 18.003906 70.4375 17.132812 C 70.4375 16.261719 70.660156 15.546875 71.097656 14.984375 C 71.539062 14.410156 72.164062 14.128906 72.964844 14.128906 C 73.769531 14.128906 74.386719 14.410156 74.832031 14.984375 C 75.28125 15.554688 75.496094 16.269531 75.496094 17.132812 C 75.496094 17.996094 75.273438 18.71875 74.832031 19.289062 M 76.097656 12.066406 C 75.207031 11.546875 74.164062 11.285156 72.964844 11.285156 C 71.769531 11.285156 70.726562 11.546875 69.835938 12.066406 C 68.941406 12.585938 68.257812 13.292969 67.78125 14.1875 C 67.304688 15.078125 67.066406 16.0625 67.066406 17.132812 C 67.066406 18.203125 67.304688 19.1875 67.78125 20.078125 C 68.257812 20.972656 68.941406 21.679688 69.835938 22.199219 C 70.726562 22.71875 71.769531 22.980469 72.964844 22.980469 C 74.164062 22.980469 75.207031 22.71875 76.097656 22.199219 C 76.992188 21.679688 77.675781 20.972656 78.152344 20.078125 C 78.628906 19.1875 78.867188 18.203125 78.867188 17.132812 C 78.867188 16.0625 78.628906 15.078125 78.152344 14.1875 C 77.671875 13.28125 76.988281 12.574219 76.097656 12.066406 M 62.058594 19.289062 C 61.613281 19.863281 60.996094 20.144531 60.191406 20.144531 C 59.390625 20.144531 58.773438 19.863281 58.324219 19.289062 C 57.878906 18.71875 57.664062 18.003906 57.664062 17.132812 C 57.664062 16.261719 57.886719 15.546875 58.324219 14.984375 C 58.765625 14.410156 59.390625 14.128906 60.191406 14.128906 C 60.996094 14.128906 61.613281 14.410156 62.058594 14.984375 C 62.507812 15.554688 62.722656 16.269531 62.722656 17.132812 C 62.722656 17.996094 62.5 18.71875 62.058594 19.289062 M 63.324219 12.066406 C 62.433594 11.546875 61.390625 11.285156 60.191406 11.285156 C 58.996094 11.285156 57.953125 11.546875 57.058594 12.066406 C 56.167969 12.585938 55.484375 13.292969 55.007812 14.1875 C 54.53125 15.078125 54.292969 16.0625 54.292969 17.132812 C 54.292969 18.203125 54.53125 19.1875 55.007812 20.078125 C 55.484375 20.972656 56.167969 21.679688 57.058594 22.199219 C 57.953125 22.71875 58.996094 22.980469 60.191406 22.980469 C 61.390625 22.980469 62.433594 22.71875 63.324219 22.199219 C 64.21875 21.679688 64.902344 20.972656 65.378906 20.078125 C 65.855469 19.1875 66.09375 18.203125 66.09375 17.132812 C 66.09375 16.0625 65.855469 15.078125 65.378906 14.1875 C 64.898438 13.28125 64.214844 12.574219 63.324219 12.066406 M 49.242188 19.289062 C 48.824219 19.863281 48.222656 20.144531 47.417969 20.144531 C 46.617188 20.144531 46.019531 19.855469 45.535156 19.269531 C 45.054688 18.679688 44.808594 17.972656 44.808594 17.132812 C 44.808594 16.292969 45.054688 15.585938 45.535156 15 C 46.019531 14.410156 46.652344 14.121094 47.417969 14.121094 C 48.183594 14.121094 48.824219 14.402344 49.242188 14.976562 C 49.65625 15.546875 49.867188 16.261719 49.867188 17.125 C 49.867188 17.988281 49.65625 18.710938 49.242188 19.285156 M 50.980469 12.050781 C 50.253906 11.539062 49.390625 11.277344 48.394531 11.277344 C 46.832031 11.277344 45.671875 11.992188 44.898438 13.414062 C 44.785156 13.636719 44.667969 13.75 44.539062 13.75 C 44.480469 13.75 44.441406 13.75 44.414062 13.726562 C 44.332031 13.679688 44.285156 13.628906 44.285156 13.5625 C 44.285156 13.464844 44.332031 13.339844 44.414062 13.183594 C 44.496094 13.027344 44.554688 12.921875 44.585938 12.871094 C 44.742188 12.566406 44.816406 12.261719 44.816406 11.949219 L 44.816406 7.597656 L 41.445312 7.597656 L 41.445312 22.652344 L 44.816406 22.652344 L 44.816406 22.257812 C 44.816406 21.953125 44.734375 21.648438 44.5625 21.359375 C 44.421875 21.082031 44.355469 20.882812 44.355469 20.769531 C 44.355469 20.660156 44.40625 20.585938 44.523438 20.539062 C 44.605469 20.511719 44.679688 20.527344 44.734375 20.585938 C 44.792969 20.636719 44.84375 20.726562 44.902344 20.839844 C 45.664062 22.273438 46.832031 22.988281 48.402344 22.988281 C 49.398438 22.988281 50.261719 22.726562 50.988281 22.214844 C 51.71875 21.699219 52.277344 21 52.664062 20.109375 C 53.050781 19.222656 53.242188 18.234375 53.242188 17.132812 C 53.242188 16.03125 53.050781 15.042969 52.664062 14.148438 C 52.277344 13.265625 51.71875 12.566406 50.988281 12.050781 " fill-opacity="1" fill-rule="evenodd"></path></g></svg>