<?xml version="1.0" encoding="utf-8"?>
<!-- Generator: Adobe Illustrator 27.4.1, SVG Export Plug-In . SVG Version: 6.00 Build 0)  -->
<svg version="1.1" id="Layer_1" xmlns="http://www.w3.org/2000/svg" xmlns:xlink="http://www.w3.org/1999/xlink" x="0px" y="0px"
	 viewBox="0 0 184.2 68" style="enable-background:new 0 0 184.2 68;" xml:space="preserve">
<style type="text/css">
	.st0{clip-path:url(#SVGID_00000127028133203575693490000004538210946956656257_);fill:#BB613B;}
	.st1{clip-path:url(#SVGID_00000127028133203575693490000004538210946956656257_);fill:#EFF0F1;}
</style>
<g>
	<defs>
		<rect id="SVGID_1_" width="184.2" height="68"/>
	</defs>
	<clipPath id="SVGID_00000003090389571964695230000015199573885794456505_">
		<use xlink:href="#SVGID_1_"  style="overflow:visible;"/>
	</clipPath>
	<path style="clip-path:url(#SVGID_00000003090389571964695230000015199573885794456505_);fill:#BB613B;" d="M57.8,56.8
		c-3.7,3.6-7.8,6.8-12.8,8.5c-3.6,1.2-7.3,2.1-11.1,2.3C22.8,68.4,11.7,67.8,0.6,68c-0.5,0-0.5-0.2-0.5-0.5
		c0.3-12.9-0.5-25.9,0.3-38.7C2.6,12.3,17.7-0.4,34.1,0c16.3,0.2,30.4,12.6,32.7,28.8c0.1,0.4,0,0.5-0.4,0.5c-1.5,0-2.9,0-4.4,0
		c-0.1,0-0.3-0.1-0.3-0.2C59.1,7.6,31-2.4,15.2,12.1c-28.7,26.6,10.9,68.5,39,41.1"/>
	<path style="clip-path:url(#SVGID_00000003090389571964695230000015199573885794456505_);fill:#EFF0F1;" d="M149.8,29.2
		c3.3-9,17-9,20.3,0H149.8z M78.4,44.1c-14.3-0.3-14.3-21.5,0-21.8C92.7,22.6,92.7,43.9,78.4,44.1 M140.3,19
		c-5-12.5-21.3-9.9-32.6-10c-8.6,0.1-5.5,12.2-6,17.5C96.3,5.7,66,2.9,56.8,22.2c0,0,0,0.1,0,0.1c0,0,0,0,0,0v0c0,0,0,0,0,0
		c0,0-0.1,0.1-0.1,0.2c-0.2,0.4-0.4,0.8-0.6,1.3c0,0,0,0,0,0c0,0.1-0.1,0.2-0.1,0.3c-0.1,0.2-0.2,0.5-0.2,0.7
		c-0.3,0.8-0.5,1.6-0.7,2.4c0,0.3-0.1,0.6-0.2,0.9c-0.1,0.3-0.2,0.6-0.3,0.9c0,0.1,0,0.2,0,0.3c0,0,0,0,0,0
		C49.8,59.1,93.1,68.7,101.7,40v17.5H115V22.3c5.5,0.6,14.7-2.9,13.9,6.8h7.1c-4.3,21.2,22.6,36.9,38.9,23.1l-9.6-9.6
		c-4.1,2.5-10.1,1.6-13.2-1.8H183c0.8-2.4,1.2-5,1.2-7.6C184.8,10.3,153.3,0.1,140.3,19"/>
	<path style="clip-path:url(#SVGID_00000003090389571964695230000015199573885794456505_);fill:#EFF0F1;" d="M51.7,50.7
		c-3.5,3.6-7.6,6-12.5,7.1c-7.8,1.7-14.9,0.1-21.1-4.9c-5.2-4.1-8.1-9.7-8.7-16.2c-1-10.1,2.8-18.3,11.4-23.8
		C32,5.4,47.7,9.3,54.8,20.8c1.3,2.2,2.3,4.5,3,7c0.1,0.4,0.2,0.8,0.2,1.3c0,0.1-0.2,0.3-0.2,0.3c-2.2,0-4.5,0-6.7,0
		c-2.2,0-4.4,0-6.7,0c-0.1,0-0.3-0.1-0.4-0.2c-2.1-4.3-6.8-7-11.4-6.3c-5.2,0.7-9,4.2-9.9,9.2c-1.1,6.2,3.5,12.4,9.8,12.9
		c3.9,0.4,7.2-0.9,9.8-3.8"/>
</g>
</svg>
