<svg xmlns="http://www.w3.org/2000/svg" id="Layer_2" viewBox="0 0 623.87 245.62"><defs><style>.cls-1{fill:#fff;}</style></defs><g id="Layer_1-2"><path class="cls-1" d="M50.68,145.98c0,29.43,23.93,53.35,53.35,53.35h12.06v16.65h-12.06c-1.55,0-3.08-.03-4.6-.15-5.66-.37-11.06-1.4-16.25-3.01-28.46-8.92-49.16-35.49-49.16-66.84,0-35.8,27-65.41,61.68-69.54V0h82.62v16.65h-65.94v75.97h-8.36c-29.43,0-53.35,23.92-53.35,53.35Z"></path><path class="cls-1" d="M96.09,109.75v.41h0c0-.14,0-.27,0-.41ZM132.3,105.26V35.81"></path><path class="cls-1" d="M199.1,52.47v-16.66h-66.8v69.45c.05.87.12,1.58.22,2.19.33,2.12.99,2.98,2.22,4.92.48.75,1.02,1.5,1.2,2.37.18.88-.13,1.96-.97,2.27-1.65.61-2.85-1.54-3.24-2.13-4.56-6.92-14.9-8.8-22.66-8.8-21.99,0-39.88,17.89-39.88,39.89s17.89,39.88,39.88,39.88,39.9-17.89,39.9-39.88c0-.2,0-.42-.01-.62V52.47h50.14ZM96.09,109.75c0,.14,0,.27,0,.41h0v-.41ZM109.07,169.19c-12.8,0-23.22-10.43-23.22-23.22s10.42-23.23,23.22-23.23,23.02,10.21,23.23,22.83c.01.13.01.26.01.4,0,12.79-10.42,23.22-23.24,23.22Z"></path><path class="cls-1" d="M132.31,145.97h-.01v-.4c.01.13.01.26.01.4Z"></path><path class="cls-1" d="M96.1,110.16h0v-.41c0,.14,0,.27,0,.41Z"></path><path class="cls-1" d="M81.6,228.27v17.36C35.36,237.67,0,196.35,0,146.75c0-22.84,7.71-45.18,21.67-62.92,12.62-16.03,33.25-27.76,52.97-33.42v16.62c-15.62,4.77-29.67,14.42-39.99,27.51-11.76,14.93-17.97,32.99-17.97,52.21,0,40.18,27.93,73.79,64.94,81.51Z"></path><path class="cls-1" d="M132.52,107.45c-.1-.61-.17-1.32-.22-2.19l.22,2.19Z"></path><path class="cls-1" d="M285.32,79.33v103.63h-23.03v-2.73c0-2.16.72-4.03,1.73-6.19,1.15-2.45,2.45-4.89.29-5.61-1.44-.43-2.16,1.15-2.59,2.02-4.61,9.21-12.52,14.83-23.89,14.83-20.87,0-33.11-17.85-33.11-40.3s12.23-40.3,33.11-40.3c11.51,0,19,6.05,23.89,14.68.58,1.01,1.58,3.02,3.31,2.16,1.87-.86,0-3.45-1.15-5.9-1.01-2.02-1.58-4.17-1.58-6.33v-29.94h23.03ZM262.29,144.96c0-11.08-6.91-20.73-17.85-20.73-11.51,0-16.7,9.64-16.7,20.73s5.18,20.73,16.7,20.73,17.85-9.64,17.85-20.73Z"></path><path class="cls-1" d="M295.68,153.02v-46.06h23.03v36.85c0,17.13,3.89,21.88,12.09,21.88,9.36,0,17.85-11.95,17.85-29.51v-29.22h23.03v76h-23.03v-3.6c0-3.45.72-5.9,1.87-8.2,1.15-2.3,2.59-5.18.72-5.9-1.73-.72-2.45,1.01-3.02,2.16-3.74,7.48-12.09,17.85-25.19,17.85-16.41,0-27.35-10.65-27.35-32.24Z"></path><path class="cls-1" d="M407.38,109.26c0,2.16-.58,4.32-1.58,6.33-1.15,2.45-3.02,5.04-1.15,5.9,1.73.86,2.73-1.15,3.31-2.16,4.75-8.78,12.38-14.68,23.89-14.68,20.87,0,33.1,17.85,33.1,40.3s-12.23,40.3-33.1,40.3c-11.37,0-19.14-5.76-23.89-14.83-.43-.86-1.15-2.45-2.59-2.02-2.16.72-.86,3.17.29,5.61,1.15,2.01,1.73,4.03,1.73,6.19v2.73h-23.03v-103.63h23.03v29.94ZM441.93,144.96c0-11.08-5.18-20.73-16.7-20.73s-17.85,9.64-17.85,20.73,6.91,20.73,17.85,20.73c11.51,0,16.7-9.64,16.7-20.73Z"></path><path class="cls-1" d="M492.31,156.47c.14,5.9,3.6,11.52,14.54,11.52,9.93,0,13.39-3.02,13.39-6.91,0-4.61-6.91-5.9-19.72-7.34-26.48-3.02-28.64-16.41-28.64-24.33,0-12.81,12.09-24.76,34.83-24.76,18.28,0,33.11,8.35,34.26,26.48h-22.74c-.29-5.61-3.6-9.21-11.95-9.21s-11.37,2.73-11.37,6.48c0,2.59,1.58,5.04,14.11,6.19,21.01,2.01,34.26,8.64,34.26,25.04,0,14.54-13.82,25.62-36.99,25.62s-35.7-10.94-36.7-28.79h22.74Z"></path><path class="cls-1" d="M565.43,106.96l13.82,45.05c.86,2.88,1.15,5.47,1.15,8.06,0,1.44.29,3.02,2.3,3.02s2.16-1.58,2.3-3.02c.29-2.59.43-5.18,1.3-8.06l13.1-45.05h24.47l-32.24,84.78c-5.18,13.53-12.38,18.86-25.62,18.86h-18.42v-18.42h6.33c10.94,0,13.1.58,15.69-5.76l.86-2.16-29.51-77.29h24.47Z"></path><path class="cls-1" d="M50.68,145.98c0,29.43,23.93,53.35,53.35,53.35h12.06v16.65h-12.06c-1.55,0-3.08-.03-4.6-.15-5.66-.37-11.06-1.4-16.25-3.01-28.46-8.92-49.16-35.49-49.16-66.84,0-35.8,27-65.41,61.68-69.54V0h82.62v16.65h-65.94v75.97h-8.36c-29.43,0-53.35,23.92-53.35,53.35Z"></path><path class="cls-1" d="M96.09,109.75v.41h0c0-.14,0-.27,0-.41ZM132.3,105.26V35.81"></path><path class="cls-1" d="M199.1,52.47v-16.66h-66.8v69.45c.05.87.12,1.58.22,2.19.33,2.12.99,2.98,2.22,4.92.48.75,1.02,1.5,1.2,2.37.18.88-.13,1.96-.97,2.27-1.65.61-2.85-1.54-3.24-2.13-4.56-6.92-14.9-8.8-22.66-8.8-21.99,0-39.88,17.89-39.88,39.89s17.89,39.88,39.88,39.88,39.9-17.89,39.9-39.88c0-.2,0-.42-.01-.62V52.47h50.14ZM96.09,109.75c0,.14,0,.27,0,.41h0v-.41ZM109.07,169.19c-12.8,0-23.22-10.43-23.22-23.22s10.42-23.23,23.22-23.23,23.02,10.21,23.23,22.83c.01.13.01.26.01.4,0,12.79-10.42,23.22-23.24,23.22Z"></path><path class="cls-1" d="M132.31,145.97h-.01v-.4c.01.13.01.26.01.4Z"></path><path class="cls-1" d="M96.1,110.16h0v-.41c0,.14,0,.27,0,.41Z"></path><path class="cls-1" d="M81.6,228.27v17.36C35.36,237.67,0,196.35,0,146.75c0-22.84,7.71-45.18,21.67-62.92,12.62-16.03,33.25-27.76,52.97-33.42v16.62c-15.62,4.77-29.67,14.42-39.99,27.51-11.76,14.93-17.97,32.99-17.97,52.21,0,40.18,27.93,73.79,64.94,81.51Z"></path><path class="cls-1" d="M132.52,107.45c-.1-.61-.17-1.32-.22-2.19l.22,2.19Z"></path><path class="cls-1" d="M285.32,79.33v103.63h-23.03v-2.73c0-2.16.72-4.03,1.73-6.19,1.15-2.45,2.45-4.89.29-5.61-1.44-.43-2.16,1.15-2.59,2.02-4.61,9.21-12.52,14.83-23.89,14.83-20.87,0-33.11-17.85-33.11-40.3s12.23-40.3,33.11-40.3c11.51,0,19,6.05,23.89,14.68.58,1.01,1.58,3.02,3.31,2.16,1.87-.86,0-3.45-1.15-5.9-1.01-2.02-1.58-4.17-1.58-6.33v-29.94h23.03ZM262.29,144.96c0-11.08-6.91-20.73-17.85-20.73-11.51,0-16.7,9.64-16.7,20.73s5.18,20.73,16.7,20.73,17.85-9.64,17.85-20.73Z"></path><path class="cls-1" d="M295.68,153.02v-46.06h23.03v36.85c0,17.13,3.89,21.88,12.09,21.88,9.36,0,17.85-11.95,17.85-29.51v-29.22h23.03v76h-23.03v-3.6c0-3.45.72-5.9,1.87-8.2,1.15-2.3,2.59-5.18.72-5.9-1.73-.72-2.45,1.01-3.02,2.16-3.74,7.48-12.09,17.85-25.19,17.85-16.41,0-27.35-10.65-27.35-32.24Z"></path><path class="cls-1" d="M407.38,109.26c0,2.16-.58,4.32-1.58,6.33-1.15,2.45-3.02,5.04-1.15,5.9,1.73.86,2.73-1.15,3.31-2.16,4.75-8.78,12.38-14.68,23.89-14.68,20.87,0,33.1,17.85,33.1,40.3s-12.23,40.3-33.1,40.3c-11.37,0-19.14-5.76-23.89-14.83-.43-.86-1.15-2.45-2.59-2.02-2.16.72-.86,3.17.29,5.61,1.15,2.01,1.73,4.03,1.73,6.19v2.73h-23.03v-103.63h23.03v29.94ZM441.93,144.96c0-11.08-5.18-20.73-16.7-20.73s-17.85,9.64-17.85,20.73,6.91,20.73,17.85,20.73c11.51,0,16.7-9.64,16.7-20.73Z"></path><path class="cls-1" d="M492.31,156.47c.14,5.9,3.6,11.52,14.54,11.52,9.93,0,13.39-3.02,13.39-6.91,0-4.61-6.91-5.9-19.72-7.34-26.48-3.02-28.64-16.41-28.64-24.33,0-12.81,12.09-24.76,34.83-24.76,18.28,0,33.11,8.35,34.26,26.48h-22.74c-.29-5.61-3.6-9.21-11.95-9.21s-11.37,2.73-11.37,6.48c0,2.59,1.58,5.04,14.11,6.19,21.01,2.01,34.26,8.64,34.26,25.04,0,14.54-13.82,25.62-36.99,25.62s-35.7-10.94-36.7-28.79h22.74Z"></path><path class="cls-1" d="M565.43,106.96l13.82,45.05c.86,2.88,1.15,5.47,1.15,8.06,0,1.44.29,3.02,2.3,3.02s2.16-1.58,2.3-3.02c.29-2.59.43-5.18,1.3-8.06l13.1-45.05h24.47l-32.24,84.78c-5.18,13.53-12.38,18.86-25.62,18.86h-18.42v-18.42h6.33c10.94,0,13.1.58,15.69-5.76l.86-2.16-29.51-77.29h24.47Z"></path></g></svg>