<?xml version="1.0" encoding="UTF-8"?>
<svg xmlns="http://www.w3.org/2000/svg" xmlns:xlink="http://www.w3.org/1999/xlink" id="Layer_1" viewBox="0 0 372 194">
  <defs>
    <style>.cls-1{fill:none;}.cls-2{fill:#eb5917;}.cls-3{clip-path:url(#clippath-1);}.cls-4{clip-path:url(#clippath-3);}.cls-5{clip-path:url(#clippath-2);}.cls-6{fill:#005b47;}.cls-7{fill:#fcf9f5;}.cls-8{clip-path:url(#clippath);}</style>
    <clipPath id="clippath">
      <rect class="cls-1" x="38.67" y="33.33" width="167.83" height="73.33"></rect>
    </clipPath>
    <clipPath id="clippath-1">
      <rect class="cls-1" x=".33" y="153.33" width="134.34" height="37.91"></rect>
    </clipPath>
    <clipPath id="clippath-2">
      <rect class="cls-1" x="38.9" y="32.55" width="167.83" height="73.33"></rect>
    </clipPath>
    <clipPath id="clippath-3">
      <rect class="cls-1" x=".56" y="152.55" width="134.34" height="37.91"></rect>
    </clipPath>
  </defs>
  <path class="cls-7" d="M140.95,187.94v-78.98h16.27l7.25,37.79v-37.79h15.27v78.98h-15.44l-7.92-39.54v39.54h-15.44Z"></path>
  <path class="cls-7" d="M188.11,108.96h21.79c5.64,0,9.86,1.56,12.69,4.69,2.82,3.13,4.26,7.76,4.31,13.9l.19,36.96c.05,7.78-1.3,13.64-4.06,17.56-2.75,3.92-7.31,5.88-13.69,5.88h-21.23v-78.98ZM206.78,173.96c2.88,0,4.31-1.41,4.31-4.23v-40.73c0-1.78-.14-3.11-.42-4-.28-.89-.79-1.48-1.52-1.79-.74-.3-1.87-.46-3.4-.46h-1.75v51.21h2.77Z"></path>
  <path class="cls-7" d="M253.1,188.67c-6.5,0-11.33-1.83-14.48-5.5-3.16-3.68-4.73-9.14-4.73-16.38v-57.83h15.35v57.19c0,2.52.24,4.48.73,5.9.48,1.41,1.53,2.1,3.13,2.1s2.64-.69,3.13-2.06c.48-1.39.73-3.36.73-5.94v-57.19h15.35v57.83c0,7.24-1.58,12.7-4.73,16.38-3.16,3.67-7.98,5.5-14.48,5.5Z"></path>
  <path class="cls-7" d="M279.76,108.96h24.27c3.86,0,6.84.88,8.96,2.63,2.11,1.75,3.53,4.2,4.27,7.35.73,3.16,1.1,7.18,1.1,12.08,0,4.49-.58,7.99-1.75,10.5-1.17,2.5-3.19,4.24-6.06,5.23,2.39.49,4.11,1.68,5.19,3.58,1.08,1.91,1.63,4.48,1.63,7.73l-.19,29.88h-15.46v-30.9c0-2.21-.43-3.61-1.29-4.23-.85-.61-2.41-.92-4.67-.92v36.04h-16v-78.98ZM299.61,138.21c2.21,0,3.31-2.4,3.31-7.19,0-2.08-.1-3.65-.29-4.69-.18-1.04-.52-1.76-1-2.15-.49-.4-1.2-.6-2.13-.6h-3.67v14.63h3.77Z"></path>
  <path class="cls-7" d="M322.86,187.94l7.63-78.98h26.77l7.54,78.98h-15l-1.1-12.77h-9.56l-.92,12.77h-15.35ZM340.34,162.56h7.17l-3.5-40.17h-.73l-2.94,40.17Z"></path>
  <path class="cls-7" d="M105.58,147.2l-98.77.95,19.91-35.5,93.04-.07"></path>
  <g class="cls-8">
    <path class="cls-7" d="M206.45,34.48c-3.17,24.17-18.09,46.46-38.72,59.22-11.22,6.94-20.43,9.14-33.43,10.34-26.85,2.47-56.84.57-84.27,1.21-3.61.09-10.85-.02-10.85-.02l19.13-35.57c1.41-.77,8.8-.47,10.94-.43,10.72.18,21.59.46,32.28.44,22.54-.04,42.44,3.05,58.51-15.96,2.97-3.52,5.58-8.35,7.51-12.54.62-1.35,2.19-6.69,3.19-7.03l35.72.34h0Z"></path>
  </g>
  <g class="cls-3">
    <path class="cls-7" d="M133.65,154.4l-20.32,35.91-113,.49,18.27-35.52"></path>
  </g>
  <path class="cls-2" d="M124.15,4.32c18.68-2.34,32.83,14.09,28.11,32.2-5.04,19.32-30.36,25.07-43.14,9.61-12.02-14.55-4.18-39.4,15.02-41.81h0Z"></path>
  <path class="cls-6" d="M141.19,187.16v-78.98h16.27l7.25,37.79v-37.79h15.27v78.98h-15.44l-7.92-39.54v39.54h-15.44Z"></path>
  <path class="cls-6" d="M188.34,108.18h21.79c5.64,0,9.86,1.56,12.69,4.69,2.82,3.13,4.26,7.76,4.31,13.9l.19,36.96c.05,7.78-1.3,13.64-4.06,17.56-2.75,3.92-7.31,5.88-13.69,5.88h-21.23v-78.98ZM207.01,173.18c2.88,0,4.31-1.41,4.31-4.23v-40.73c0-1.78-.14-3.11-.42-4-.28-.89-.79-1.48-1.52-1.79-.74-.3-1.87-.46-3.4-.46h-1.75v51.21h2.77Z"></path>
  <path class="cls-6" d="M253.33,187.89c-6.5,0-11.33-1.83-14.48-5.5-3.16-3.68-4.73-9.14-4.73-16.38v-57.83h15.35v57.19c0,2.52.24,4.48.73,5.9.48,1.41,1.53,2.1,3.13,2.1s2.64-.69,3.13-2.06c.48-1.39.73-3.36.73-5.94v-57.19h15.35v57.83c0,7.24-1.58,12.7-4.73,16.38-3.16,3.67-7.98,5.5-14.48,5.5Z"></path>
  <path class="cls-6" d="M279.99,108.18h24.27c3.86,0,6.84.88,8.96,2.63,2.11,1.75,3.53,4.2,4.27,7.35.73,3.16,1.1,7.18,1.1,12.08,0,4.49-.58,7.99-1.75,10.5-1.17,2.5-3.19,4.24-6.06,5.23,2.39.49,4.11,1.68,5.19,3.58,1.08,1.91,1.63,4.48,1.63,7.73l-.19,29.88h-15.46v-30.9c0-2.21-.43-3.61-1.29-4.23-.85-.61-2.41-.92-4.67-.92v36.04h-16v-78.98ZM299.85,137.43c2.21,0,3.31-2.4,3.31-7.19,0-2.08-.1-3.65-.29-4.69-.18-1.04-.52-1.76-1-2.15-.49-.4-1.2-.6-2.13-.6h-3.67v14.63h3.77Z"></path>
  <path class="cls-6" d="M323.1,187.16l7.63-78.98h26.77l7.54,78.98h-15l-1.1-12.77h-9.56l-.92,12.77h-15.35ZM340.57,161.79h7.17l-3.5-40.17h-.73l-2.94,40.17Z"></path>
  <path class="cls-6" d="M105.81,146.42l-98.77.95,19.91-35.5,93.04-.07"></path>
  <g class="cls-5">
    <path class="cls-6" d="M206.68,33.71c-3.17,24.17-18.09,46.46-38.72,59.22-11.22,6.94-20.43,9.14-33.43,10.34-26.85,2.47-56.84.57-84.27,1.21-3.61.09-10.85-.02-10.85-.02l19.13-35.57c1.41-.77,8.8-.47,10.94-.43,10.72.18,21.59.46,32.28.44,22.54-.04,42.44,3.05,58.51-15.96,2.97-3.52,5.58-8.35,7.51-12.54.62-1.35,2.19-6.69,3.19-7.03l35.72.34h0Z"></path>
  </g>
  <g class="cls-4">
    <path class="cls-6" d="M133.89,153.62l-20.32,35.91-113,.49,18.27-35.52"></path>
  </g>
  <path class="cls-2" d="M124.38,3.54c18.68-2.34,32.83,14.09,28.11,32.2-5.04,19.32-30.36,25.07-43.14,9.61-12.02-14.55-4.18-39.4,15.02-41.81h0Z"></path>
</svg>
